<svg width="24" height="24" viewBox="0 0 24 24" fill="none" xmlns="http://www.w3.org/2000/svg">
<path d="M4.5 10.9286L19.5 10.9286L19.5 13.0714L4.5 13.0714L4.5 10.9286ZM12 19.5C11.4317 19.5 10.8866 19.2742 10.4848 18.8724C10.0829 18.4705 9.85714 17.9255 9.85714 17.3571C9.85714 16.7888 10.0829 16.2438 10.4848 15.8419C10.8866 15.4401 11.4317 15.2143 12 15.2143C12.5683 15.2143 13.1134 15.4401 13.5152 15.8419C13.9171 16.2438 14.1429 16.7888 14.1429 17.3571C14.1429 17.9255 13.9171 18.4705 13.5152 18.8724C13.1134 19.2742 12.5683 19.5 12 19.5ZM12 8.78571C11.4317 8.78571 10.8866 8.55995 10.4848 8.15809C10.0829 7.75622 9.85714 7.21118 9.85714 6.64286C9.85714 6.07454 10.0829 5.52949 10.4848 5.12763C10.8866 4.72576 11.4317 4.5 12 4.5C12.5683 4.5 13.1134 4.72576 13.5152 5.12763C13.9171 5.52949 14.1429 6.07454 14.1429 6.64286C14.1429 7.21118 13.9171 7.75622 13.5152 8.15809C13.1134 8.55995 12.5683 8.78571 12 8.78571Z" fill="#212121"/>
</svg>
