<svg width="25" height="24" viewBox="0 0 25 24" fill="none" xmlns="http://www.w3.org/2000/svg">
<g clip-path="url(#clip0_29_794)">
<path d="M12.5 2C18.023 2 22.5 6.477 22.5 12C22.5 17.523 18.023 22 12.5 22C6.977 22 2.5 17.523 2.5 12C2.5 6.477 6.977 2 12.5 2ZM12.5 4C10.3783 4 8.34344 4.84285 6.84315 6.34315C5.34285 7.84344 4.5 9.87827 4.5 12C4.5 14.1217 5.34285 16.1566 6.84315 17.6569C8.34344 19.1571 10.3783 20 12.5 20C14.6217 20 16.6566 19.1571 18.1569 17.6569C19.6571 16.1566 20.5 14.1217 20.5 12C20.5 9.87827 19.6571 7.84344 18.1569 6.34315C16.6566 4.84285 14.6217 4 12.5 4ZM15.3 13.857C15.3933 13.7629 15.5044 13.6882 15.6268 13.6374C15.7492 13.5866 15.8804 13.5606 16.013 13.561C16.1455 13.5614 16.2766 13.5881 16.3987 13.6396C16.5208 13.6911 16.6315 13.7663 16.7243 13.8609C16.817 13.9556 16.8901 14.0677 16.9391 14.1908C16.9882 14.3139 17.0123 14.4455 17.0101 14.578C17.0078 14.7105 16.9792 14.8413 16.926 14.9626C16.8728 15.084 16.7959 15.1936 16.7 15.285C15.5794 16.3858 14.0708 17.0018 12.5 17C10.9292 17.0018 9.42064 16.3858 8.3 15.285C8.11503 15.0984 8.01093 14.8465 8.0102 14.5838C8.00948 14.321 8.11219 14.0685 8.29613 13.8809C8.48006 13.6933 8.73045 13.5856 8.99316 13.5811C9.25586 13.5767 9.50977 13.6758 9.7 13.857C10.4468 14.5912 11.4527 15.0018 12.5 15C13.59 15 14.577 14.565 15.3 13.857ZM9 8C9.39782 8 9.77936 8.15804 10.0607 8.43934C10.342 8.72064 10.5 9.10218 10.5 9.5C10.5 9.89782 10.342 10.2794 10.0607 10.5607C9.77936 10.842 9.39782 11 9 11C8.60218 11 8.22064 10.842 7.93934 10.5607C7.65804 10.2794 7.5 9.89782 7.5 9.5C7.5 9.10218 7.65804 8.72064 7.93934 8.43934C8.22064 8.15804 8.60218 8 9 8ZM16 8C16.3978 8 16.7794 8.15804 17.0607 8.43934C17.342 8.72064 17.5 9.10218 17.5 9.5C17.5 9.89782 17.342 10.2794 17.0607 10.5607C16.7794 10.842 16.3978 11 16 11C15.6022 11 15.2206 10.842 14.9393 10.5607C14.658 10.2794 14.5 9.89782 14.5 9.5C14.5 9.10218 14.658 8.72064 14.9393 8.43934C15.2206 8.15804 15.6022 8 16 8Z" fill="black"/>
</g>
<defs>
<clipPath id="clip0_29_794">
<rect width="24" height="24" fill="white" transform="translate(0.5)"/>
</clipPath>
</defs>
</svg>
