<svg width="24" height="24" viewBox="0 0 24 24" fill="none" xmlns="http://www.w3.org/2000/svg">
<g clip-path="url(#clip0_43_2138)">
<g clip-path="url(#clip1_43_2138)">
<path d="M11.999 18.3C12.2377 18.3 12.4666 18.3948 12.6354 18.5636C12.8042 18.7324 12.899 18.9613 12.899 19.2V20.1C12.899 20.3387 12.8042 20.5676 12.6354 20.7364C12.4666 20.9052 12.2377 21 11.999 21C11.7603 21 11.5314 20.9052 11.3626 20.7364C11.1938 20.5676 11.099 20.3387 11.099 20.1V19.2C11.099 18.9613 11.1938 18.7324 11.3626 18.5636C11.5314 18.3948 11.7603 18.3 11.999 18.3ZM17.7266 16.455L18.3629 17.0913C18.5268 17.261 18.6176 17.4884 18.6155 17.7244C18.6135 17.9603 18.5188 18.1861 18.3519 18.3529C18.1851 18.5198 17.9593 18.6145 17.7234 18.6165C17.4874 18.6186 17.26 18.5278 17.0903 18.3639L16.454 17.7276C16.2901 17.5579 16.1993 17.3305 16.2014 17.0945C16.2034 16.8586 16.2981 16.6328 16.465 16.466C16.6318 16.2991 16.8576 16.2044 17.0935 16.2024C17.3295 16.2003 17.5569 16.2911 17.7266 16.455ZM6.2714 16.455C6.43336 16.2936 6.65069 16.1999 6.87925 16.1929C7.1078 16.1859 7.33044 16.2662 7.50195 16.4174C7.67346 16.5687 7.78098 16.7795 7.80266 17.0071C7.82435 17.2348 7.75857 17.4621 7.6187 17.643L7.544 17.7276L6.9077 18.3639C6.74574 18.5253 6.52841 18.619 6.29986 18.626C6.0713 18.633 5.84866 18.5527 5.67715 18.4015C5.50564 18.2502 5.39813 18.0394 5.37644 17.8118C5.35476 17.5841 5.42053 17.3568 5.5604 17.1759L5.6351 17.0913L6.2714 16.455ZM11.999 6.6C13.4312 6.6 14.8047 7.16893 15.8174 8.18162C16.8301 9.19432 17.399 10.5678 17.399 12C17.399 13.4322 16.8301 14.8057 15.8174 15.8184C14.8047 16.8311 13.4312 17.4 11.999 17.4C10.5668 17.4 9.19332 16.8311 8.18063 15.8184C7.16793 14.8057 6.599 13.4322 6.599 12C6.599 10.5678 7.16793 9.19432 8.18063 8.18162C9.19332 7.16893 10.5668 6.6 11.999 6.6ZM11.999 8.4C11.0442 8.4 10.1285 8.77928 9.45342 9.45442C8.77829 10.1295 8.399 11.0452 8.399 12C8.399 12.9548 8.77829 13.8705 9.45342 14.5456C10.1285 15.2207 11.0442 15.6 11.999 15.6C12.9538 15.6 13.8695 15.2207 14.5446 14.5456C15.2197 13.8705 15.599 12.9548 15.599 12C15.599 11.0452 15.2197 10.1295 14.5446 9.45442C13.8695 8.77928 12.9538 8.4 11.999 8.4ZM4.799 11.1C5.02839 11.1003 5.24903 11.1881 5.41583 11.3456C5.58264 11.503 5.68301 11.7183 5.69646 11.9473C5.7099 12.1763 5.6354 12.4017 5.48816 12.5776C5.34093 12.7536 5.13209 12.8666 4.9043 12.8937L4.799 12.9H3.899C3.66961 12.8997 3.44897 12.8119 3.28217 12.6544C3.11537 12.497 3.01499 12.2817 3.00155 12.0527C2.9881 11.8237 3.06261 11.5983 3.20984 11.4224C3.35707 11.2464 3.56592 11.1334 3.7937 11.1063L3.899 11.1H4.799ZM20.099 11.1C20.3377 11.1 20.5666 11.1948 20.7354 11.3636C20.9042 11.5324 20.999 11.7613 20.999 12C20.999 12.2387 20.9042 12.4676 20.7354 12.6364C20.5666 12.8052 20.3377 12.9 20.099 12.9H19.199C18.9603 12.9 18.7314 12.8052 18.5626 12.6364C18.3938 12.4676 18.299 12.2387 18.299 12C18.299 11.7613 18.3938 11.5324 18.5626 11.3636C18.7314 11.1948 18.9603 11.1 19.199 11.1H20.099ZM5.6351 5.6361C5.79008 5.48114 5.99627 5.38805 6.21499 5.3743C6.43371 5.36055 6.64994 5.42707 6.8231 5.5614L6.9077 5.6361L7.544 6.2724C7.70542 6.43436 7.79913 6.65169 7.80611 6.88025C7.81309 7.1088 7.73281 7.33144 7.58158 7.50295C7.43035 7.67446 7.21951 7.78197 6.99188 7.80366C6.76425 7.82534 6.5369 7.75957 6.356 7.6197L6.2714 7.545L5.6351 6.9087C5.46638 6.73992 5.3716 6.51105 5.3716 6.2724C5.3716 6.03375 5.46638 5.80487 5.6351 5.6361ZM18.3629 5.6361C18.5316 5.80487 18.6264 6.03375 18.6264 6.2724C18.6264 6.51105 18.5316 6.73992 18.3629 6.9087L17.7266 7.545C17.6436 7.63096 17.5443 7.69952 17.4345 7.74669C17.3247 7.79386 17.2066 7.81869 17.0871 7.81973C16.9676 7.82076 16.8491 7.79799 16.7384 7.75274C16.6278 7.70749 16.5274 7.64066 16.4428 7.55616C16.3583 7.47165 16.2915 7.37117 16.2463 7.26056C16.201 7.14995 16.1782 7.03144 16.1793 6.91194C16.1803 6.79244 16.2051 6.67434 16.2523 6.56454C16.2995 6.45473 16.368 6.35542 16.454 6.2724L17.0903 5.6361C17.2591 5.46738 17.488 5.37259 17.7266 5.37259C17.9653 5.37259 18.1941 5.46738 18.3629 5.6361ZM11.999 3C12.2377 3 12.4666 3.09482 12.6354 3.2636C12.8042 3.43239 12.899 3.66131 12.899 3.9V4.8C12.899 5.03869 12.8042 5.26761 12.6354 5.4364C12.4666 5.60518 12.2377 5.7 11.999 5.7C11.7603 5.7 11.5314 5.60518 11.3626 5.4364C11.1938 5.26761 11.099 5.03869 11.099 4.8V3.9C11.099 3.66131 11.1938 3.43239 11.3626 3.2636C11.5314 3.09482 11.7603 3 11.999 3Z" fill="#212121"/>
</g>
</g>
<defs>
<clipPath id="clip0_43_2138">
<rect width="24" height="24" fill="white"/>
</clipPath>
<clipPath id="clip1_43_2138">
<rect width="24" height="24" fill="white"/>
</clipPath>
</defs>
</svg>
