<svg width="153" height="36" viewBox="0 0 153 36" fill="none" xmlns="http://www.w3.org/2000/svg">
<g clip-path="url(#clip0_18_1502)">
<path d="M31.5379 25.682C28.6148 29.5371 23.9877 32.0272 18.7769 32.0272C18.7487 32.0272 18.7204 32.0272 18.6875 32.0272V36C8.74608 36 0.6875 27.9414 0.6875 18C0.6875 8.05858 8.74608 0 18.6875 0C18.7157 0 18.744 0 18.7769 0C24.8585 0 30.1493 3.39854 32.8606 8.39278C32.6676 8.36454 32.4746 8.34571 32.2722 8.34571H13.8815C9.33917 8.34571 5.54053 11.8949 5.21574 17.0115C4.74974 24.3687 9.91344 28.511 15.7079 28.511V25.6773H31.5332L31.5379 25.682ZM13.9427 15.2463C12.9684 15.2463 12.1776 16.0371 12.1776 17.0115C12.1776 17.9859 12.9684 18.7767 13.9427 18.7767C14.9171 18.7767 15.7079 17.9859 15.7079 17.0115C15.7079 16.0371 14.9171 15.2463 13.9427 15.2463ZM21.8318 15.2463C20.8575 15.2463 20.0667 16.0371 20.0667 17.0115C20.0667 17.9859 20.8575 18.7767 21.8318 18.7767C22.8062 18.7767 23.597 17.9859 23.597 17.0115C23.597 16.0371 22.8062 15.2463 21.8318 15.2463ZM29.721 15.2463C28.7466 15.2463 27.9558 16.0371 27.9558 17.0115C27.9558 17.9859 28.7466 18.7767 29.721 18.7767C30.6953 18.7767 31.4861 17.9859 31.4861 17.0115C31.4861 16.0371 30.6953 15.2463 29.721 15.2463Z" fill="#434CE6"/>
</g>
<path d="M42.4385 22.0093H43.2459C43.6914 22.0093 44.0255 21.9443 44.2482 21.8144C44.471 21.6659 44.6473 21.3968 44.7772 21.007L49.928 6.41764H53.464L58.5313 21.007C58.6612 21.3968 58.8375 21.6659 59.0603 21.8144C59.3016 21.9443 59.6543 22.0093 60.1183 22.0093H60.8979V24.4316H53.9373V22.0093H55.2181L54.2157 18.9466H49.1485L48.1183 22.0093H49.399V24.4316H42.4385V22.0093ZM53.6032 16.942L51.7099 11.1787L49.761 16.942H53.6032Z" fill="#212121"/>
<path d="M62.3957 22.0093H63.1196C63.5094 22.0093 63.7878 21.9258 63.9549 21.7587C64.1219 21.5731 64.2054 21.2947 64.2054 20.9234V14.5197C64.2054 14.1671 64.1219 13.9072 63.9549 13.7401C63.8064 13.5731 63.5465 13.4896 63.1753 13.4896H62.3957V11.0673H66.5442L66.7112 12.9049C67.3238 12.1439 68.0384 11.5777 68.8551 11.2065C69.6904 10.8353 70.6741 10.6497 71.8064 10.6497C73.3655 10.6497 74.5071 11.0487 75.231 11.8469C75.9549 12.6265 76.3168 13.7773 76.3168 15.2993V20.9791C76.3168 21.3318 76.3911 21.5916 76.5395 21.7587C76.7066 21.9258 76.9757 22.0093 77.347 22.0093H78.0709V24.4316H72.6695V15.3271C72.6695 14.5104 72.5024 13.9258 72.1683 13.5731C71.8342 13.2019 71.2866 13.0162 70.5256 13.0162C69.7275 13.0162 69.0778 13.2483 68.5767 13.7123C68.0941 14.1578 67.8528 14.7889 67.8528 15.6056V20.9791C67.8528 21.3318 67.927 21.5916 68.0755 21.7587C68.2426 21.9258 68.5117 22.0093 68.8829 22.0093H69.6068V24.4316H62.3957V22.0093Z" fill="#212121"/>
<path d="M86.0755 30C84.8876 30 83.811 29.8329 82.8458 29.4988C81.8806 29.1647 81.0639 28.6821 80.3957 28.051V25.9629H83.5419V26.9374C83.8203 27.1972 84.1451 27.3736 84.5163 27.4664C84.9061 27.5777 85.3887 27.6334 85.9641 27.6334C87.6718 27.6334 88.5256 26.6311 88.5256 24.6264V23.123C87.5233 23.9026 86.3261 24.2923 84.934 24.2923C83.2634 24.2923 81.9456 23.8747 80.9804 23.0394C80.0337 22.1856 79.5604 20.9977 79.5604 19.4756V14.5197C79.5604 13.8329 79.2078 13.4896 78.5024 13.4896H77.7785V11.0673H83.2634V19.6149C83.2634 21.1555 84.0523 21.9258 85.63 21.9258C86.4467 21.9258 87.0871 21.6937 87.5511 21.2297C88.0337 20.7657 88.275 20.0974 88.275 19.2251V14.5197C88.275 13.8329 87.9224 13.4896 87.217 13.4896H86.4931V11.0673H92.0059V23.9861C92.0059 25.8051 91.4676 27.2622 90.391 28.3573C89.333 29.4524 87.8945 30 86.0755 30Z" fill="#212121"/>
<path d="M103.482 24.8492C101.459 24.8492 99.7422 24.4594 98.3315 23.6798C96.9208 22.9002 95.8536 21.8144 95.1297 20.4223C94.4243 19.0116 94.0717 17.3875 94.0717 15.5499C94.0717 13.6937 94.3965 12.051 95.0461 10.6218C95.6958 9.17402 96.6888 8.04176 98.0253 7.22506C99.3802 6.40835 101.06 6 103.065 6C104.42 6 105.57 6.12993 106.517 6.38979C107.464 6.64965 108.392 7.06729 109.301 7.64269V10.8167H105.654V8.89559C105.301 8.7471 104.949 8.64501 104.596 8.58933C104.243 8.51508 103.798 8.47796 103.26 8.47796C101.459 8.47796 100.076 9.09977 99.1111 10.3434C98.1645 11.587 97.6912 13.3225 97.6912 15.5499C97.6912 17.7216 98.2016 19.4014 99.2225 20.5893C100.262 21.7773 101.738 22.3712 103.649 22.3712C104.485 22.3712 105.246 22.2784 105.932 22.0928C106.619 21.9072 107.325 21.6102 108.048 21.2019L109.357 23.2622C108.466 23.8562 107.575 24.2645 106.684 24.4872C105.812 24.7285 104.745 24.8492 103.482 24.8492Z" fill="#212121"/>
<path d="M110.848 22.0093H111.572C111.961 22.0093 112.24 21.9258 112.407 21.7587C112.574 21.5731 112.657 21.2947 112.657 20.9234V9.59165C112.657 9.1833 112.583 8.88631 112.435 8.7007C112.305 8.51508 112.036 8.42227 111.627 8.42227H110.848V6H115.943V12.3202C116.648 11.6891 117.335 11.2529 118.003 11.0116C118.69 10.7703 119.534 10.6497 120.537 10.6497C122.022 10.6497 123.108 11.0487 123.794 11.8469C124.481 12.6265 124.824 13.7773 124.824 15.2993V20.9791C124.824 21.3318 124.899 21.5916 125.047 21.7587C125.214 21.9258 125.483 22.0093 125.855 22.0093H126.579V24.4316H121.177V15.3271C121.177 14.5104 121.001 13.9258 120.648 13.5731C120.314 13.2019 119.776 13.0162 119.033 13.0162C118.235 13.0162 117.576 13.2483 117.056 13.7123C116.555 14.1578 116.305 14.7889 116.305 15.6056V20.9791C116.305 21.3318 116.379 21.5916 116.527 21.7587C116.695 21.9258 116.964 22.0093 117.335 22.0093H118.059V24.4316H110.848V22.0093Z" fill="#212121"/>
<path d="M132.213 24.8492C130.673 24.8492 129.503 24.5244 128.705 23.8747C127.925 23.2251 127.536 22.297 127.536 21.0905C127.536 19.7355 127.972 18.7332 128.844 18.0835C129.735 17.4153 131.016 17.0348 132.686 16.942L136.111 16.7193V15.0766C136.111 14.3712 135.953 13.8701 135.638 13.5731C135.322 13.2761 134.793 13.1276 134.051 13.1276C133.197 13.1276 132.473 13.2947 131.879 13.6288V14.7146H128.733V12.1531C130.348 11.1508 132.157 10.6497 134.162 10.6497C136.111 10.6497 137.531 11.0766 138.422 11.9304C139.331 12.7842 139.786 13.9536 139.786 15.4385V20.9791C139.786 21.3318 139.851 21.5916 139.981 21.7587C140.13 21.9258 140.362 22.0093 140.677 22.0093H141.206V24.4316H137.754L137.392 22.761C136.742 23.5406 136.037 24.0882 135.276 24.4037C134.515 24.7007 133.494 24.8492 132.213 24.8492ZM133.048 22.4826C134.014 22.4826 134.765 22.2691 135.304 21.8422C135.842 21.4153 136.111 20.7842 136.111 19.949V18.8074L133.021 19.0302C132.241 19.0858 131.703 19.2529 131.406 19.5313C131.109 19.7912 130.96 20.2274 130.96 20.8399C130.96 21.935 131.656 22.4826 133.048 22.4826Z" fill="#212121"/>
<path d="M147.908 24.8492C146.2 24.8492 144.91 24.4594 144.038 23.6798C143.184 22.8817 142.757 21.7309 142.757 20.2274V13.4896H140.641V11.0673H142.757V8.19954L146.404 7.11369V11.0673H150.219V13.4896H146.404V20.5058C146.404 21.1926 146.544 21.6937 146.822 22.0093C147.119 22.3248 147.555 22.4826 148.131 22.4826C148.836 22.4826 149.383 22.3155 149.773 21.9814V20.7842H152.725V23.123C151.574 24.2738 149.968 24.8492 147.908 24.8492Z" fill="#212121"/>
<defs>
<clipPath id="clip0_18_1502">
<rect width="33.9759" height="36" fill="white" transform="translate(0.6875)"/>
</clipPath>
</defs>
</svg>
