<svg width="24" height="24" viewBox="0 0 24 24" fill="none" xmlns="http://www.w3.org/2000/svg">
<path d="M7.78125 11.0625C6.875 11.0625 6.10156 10.7422 5.46094 10.1016C4.82031 9.46094 4.5 8.6875 4.5 7.78125C4.5 6.875 4.82031 6.10156 5.46094 5.46094C6.10156 4.82031 6.875 4.5 7.78125 4.5C8.6875 4.5 9.46094 4.82031 10.1016 5.46094C10.7422 6.10156 11.0625 6.875 11.0625 7.78125C11.0625 8.6875 10.7422 9.46094 10.1016 10.1016C9.46094 10.7422 8.6875 11.0625 7.78125 11.0625ZM7.78125 9.1875C8.17188 9.1875 8.50375 9.05063 8.77688 8.77688C9.05063 8.50375 9.1875 8.17188 9.1875 7.78125C9.1875 7.39062 9.05063 7.05875 8.77688 6.78563C8.50375 6.51188 8.17188 6.375 7.78125 6.375C7.39062 6.375 7.05875 6.51188 6.78563 6.78563C6.51188 7.05875 6.375 7.39062 6.375 7.78125C6.375 8.17188 6.51188 8.50375 6.78563 8.77688C7.05875 9.05063 7.39062 9.1875 7.78125 9.1875ZM16.2188 19.5C15.3125 19.5 14.5391 19.1797 13.8984 18.5391C13.2578 17.8984 12.9375 17.125 12.9375 16.2188C12.9375 15.3125 13.2578 14.5391 13.8984 13.8984C14.5391 13.2578 15.3125 12.9375 16.2188 12.9375C17.125 12.9375 17.8984 13.2578 18.5391 13.8984C19.1797 14.5391 19.5 15.3125 19.5 16.2188C19.5 17.125 19.1797 17.8984 18.5391 18.5391C17.8984 19.1797 17.125 19.5 16.2188 19.5ZM16.2188 17.625C16.6094 17.625 16.9412 17.4881 17.2144 17.2144C17.4881 16.9412 17.625 16.6094 17.625 16.2188C17.625 15.8281 17.4881 15.4963 17.2144 15.2231C16.9412 14.9494 16.6094 14.8125 16.2188 14.8125C15.8281 14.8125 15.4963 14.9494 15.2231 15.2231C14.9494 15.4963 14.8125 15.8281 14.8125 16.2188C14.8125 16.6094 14.9494 16.9412 15.2231 17.2144C15.4963 17.4881 15.8281 17.625 16.2188 17.625ZM5.8125 19.5L4.5 18.1875L18.1875 4.5L19.5 5.8125L5.8125 19.5Z" fill="#212121"/>
</svg>
