<svg width="24" height="24" viewBox="0 0 24 24" fill="none" xmlns="http://www.w3.org/2000/svg">
<path d="M12 19.5C14.0937 19.5 15.8672 18.7734 17.3203 17.3203C18.7734 15.8672 19.5 14.0938 19.5 12C19.5 9.90625 18.7734 8.13281 17.3203 6.67969C15.8672 5.22656 14.0937 4.5 12 4.5C10.9219 4.5 9.89062 4.72281 8.90625 5.16844C7.92187 5.61344 7.07812 6.25 6.375 7.07812L6.375 4.5L4.5 4.5L4.5 11.0625L11.0625 11.0625L11.0625 9.1875L7.125 9.1875C7.625 8.3125 8.30844 7.625 9.17531 7.125C10.0428 6.625 10.9844 6.375 12 6.375C13.5625 6.375 14.8906 6.92188 15.9844 8.01563C17.0781 9.10938 17.625 10.4375 17.625 12C17.625 13.5625 17.0781 14.8906 15.9844 15.9844C14.8906 17.0781 13.5625 17.625 12 17.625C10.7969 17.625 9.71094 17.2813 8.74219 16.5938C7.77344 15.9063 7.09375 15 6.70312 13.875L4.73437 13.875C5.17187 15.5313 6.0625 16.8828 7.40625 17.9297C8.75 18.9766 10.2812 19.5 12 19.5Z" fill="white"/>
</svg>
