<svg width="25" height="24" viewBox="0 0 25 24" fill="none" xmlns="http://www.w3.org/2000/svg">
<g clip-path="url(#clip0_29_970)">
<path d="M20.735 5.686C21.167 4.491 20.009 3.333 18.814 3.766L4.20904 9.048C3.01004 9.482 2.86504 11.118 3.96804 11.757L8.63004 14.456L12.793 10.293C12.9816 10.1108 13.2342 10.01 13.4964 10.0123C13.7586 10.0146 14.0095 10.1198 14.1949 10.3052C14.3803 10.4906 14.4854 10.7414 14.4877 11.0036C14.49 11.2658 14.3892 11.5184 14.207 11.707L10.044 15.87L12.744 20.532C13.382 21.635 15.018 21.489 15.452 20.291L20.735 5.686Z" fill="black"/>
</g>
<defs>
<clipPath id="clip0_29_970">
<rect width="24" height="24" fill="white" transform="translate(0.5)"/>
</clipPath>
</defs>
</svg>
