<svg width="24" height="24" viewBox="0 0 24 24" fill="none" xmlns="http://www.w3.org/2000/svg">
<path d="M19.8439 13.0975C19.2244 13.262 18.5861 13.3453 17.9451 13.3453C15.9933 13.3453 14.1603 12.5865 12.7835 11.2097C11.8793 10.3003 11.2294 9.16991 10.8983 7.93109C10.5672 6.69227 10.5666 5.38831 10.8965 4.14918C10.9377 3.99425 10.9375 3.83121 10.8958 3.67641C10.8541 3.52162 10.7724 3.38051 10.6589 3.26724C10.5455 3.15397 10.4042 3.07253 10.2494 3.03108C10.0945 2.98963 9.93147 2.98964 9.77661 3.0311C8.22533 3.44449 6.81004 4.25854 5.6727 5.3916C2.1091 8.9552 2.1091 14.7559 5.6727 18.3213C6.51975 19.1731 7.52731 19.8484 8.63708 20.3082C9.74684 20.768 10.9368 21.0031 12.138 21C13.3389 21.0033 14.5286 20.7684 15.6381 20.3088C16.7476 19.8491 17.7548 19.1739 18.6015 18.3222C19.7354 17.1847 20.5498 15.7686 20.9629 14.2165C21.004 14.0616 21.0036 13.8987 20.9619 13.744C20.9203 13.5893 20.8387 13.4483 20.7254 13.335C20.6121 13.2217 20.4711 13.1402 20.3164 13.0985C20.1617 13.0568 19.9988 13.0565 19.8439 13.0975ZM17.3097 17.0295C16.6323 17.7107 15.8264 18.2508 14.9389 18.6184C14.0513 18.9861 13.0996 19.1741 12.1389 19.1715C11.1779 19.1739 10.2259 18.9858 9.33808 18.6179C8.45023 18.2501 7.6441 17.7099 6.96632 17.0286C4.1158 14.1772 4.1158 9.53664 6.96632 6.68521C7.51713 6.13501 8.15305 5.67721 8.8496 5.32943C8.74764 6.64504 8.93092 7.96715 9.3869 9.20541C9.84289 10.4437 10.5608 11.5689 11.4917 12.5042C12.4249 13.4379 13.5498 14.1579 14.7886 14.6142C16.0274 15.0705 17.3505 15.2524 18.6664 15.1472C18.3168 15.8425 17.8588 16.4779 17.3097 17.0295Z" fill="#212121"/>
</svg>
